<svg width="172" height="49" viewBox="0 0 172 49" fill="none" xmlns="http://www.w3.org/2000/svg">
<path d="M2.4 38.5L7.82 10.5H9.86L17.7 31.1L25.5 10.5H27.54L32.98 38.5H30.12L25.98 17.08L18.58 36.66H16.78L9.38 17.08L5.24 38.5H2.4ZM38.5706 39.02C38.1306 39.02 37.7573 38.86 37.4506 38.54C37.144 38.2333 36.9906 37.8533 36.9906 37.4C36.9906 36.9733 37.144 36.6067 37.4506 36.3C37.7573 35.98 38.1306 35.82 38.5706 35.82C39.024 35.82 39.404 35.98 39.7106 36.3C40.0306 36.6067 40.1906 36.9733 40.1906 37.4C40.1906 37.8533 40.0306 38.2333 39.7106 38.54C39.404 38.86 39.024 39.02 38.5706 39.02Z" fill="white"/>
<path d="M55 4.5V44.5" stroke="white"/>
<path d="M68.44 33L71.692 16.2H72.916L77.62 28.56L82.3 16.2H83.524L86.788 33H85.072L82.588 20.148L78.148 31.896H77.068L72.628 20.148L70.144 33H68.44ZM93.9934 33.312C92.8894 33.312 91.8814 33.028 90.9694 32.46C90.0654 31.892 89.3414 31.132 88.7974 30.18C88.2614 29.22 87.9934 28.16 87.9934 27C87.9934 26.12 88.1494 25.3 88.4614 24.54C88.7734 23.772 89.2014 23.1 89.7454 22.524C90.2974 21.94 90.9374 21.484 91.6654 21.156C92.3934 20.828 93.1694 20.664 93.9934 20.664C94.8814 20.664 95.6974 20.84 96.4414 21.192C97.1934 21.544 97.8374 22.036 98.3734 22.668C98.9174 23.3 99.3254 24.04 99.5974 24.888C99.8774 25.736 99.9934 26.652 99.9454 27.636H89.7694C89.8654 28.396 90.1054 29.076 90.4894 29.676C90.8814 30.276 91.3774 30.752 91.9774 31.104C92.5854 31.448 93.2574 31.624 93.9934 31.632C94.7934 31.632 95.5134 31.424 96.1534 31.008C96.8014 30.592 97.3214 30.02 97.7134 29.292L99.4174 29.688C98.9374 30.752 98.2134 31.624 97.2454 32.304C96.2774 32.976 95.1934 33.312 93.9934 33.312ZM89.7214 26.28H98.2534C98.1974 25.536 97.9694 24.856 97.5694 24.24C97.1774 23.616 96.6694 23.12 96.0454 22.752C95.4214 22.376 94.7374 22.188 93.9934 22.188C93.2494 22.188 92.5694 22.372 91.9534 22.74C91.3374 23.1 90.8334 23.592 90.4414 24.216C90.0494 24.832 89.8094 25.52 89.7214 26.28ZM111.761 15H113.441V33H111.761V30.756C111.345 31.524 110.773 32.144 110.045 32.616C109.325 33.08 108.469 33.312 107.477 33.312C106.605 33.312 105.789 33.148 105.029 32.82C104.269 32.492 103.597 32.04 103.013 31.464C102.437 30.88 101.985 30.208 101.657 29.448C101.329 28.688 101.165 27.872 101.165 27C101.165 26.128 101.329 25.312 101.657 24.552C101.985 23.784 102.437 23.112 103.013 22.536C103.597 21.952 104.269 21.496 105.029 21.168C105.789 20.84 106.605 20.676 107.477 20.676C108.469 20.676 109.325 20.912 110.045 21.384C110.773 21.848 111.345 22.46 111.761 23.22V15ZM107.489 31.68C108.345 31.68 109.081 31.472 109.697 31.056C110.313 30.632 110.785 30.064 111.113 29.352C111.449 28.64 111.617 27.856 111.617 27C111.617 26.12 111.449 25.328 111.113 24.624C110.777 23.912 110.301 23.348 109.685 22.932C109.069 22.516 108.337 22.308 107.489 22.308C106.641 22.308 105.869 22.52 105.173 22.944C104.477 23.36 103.921 23.924 103.505 24.636C103.089 25.348 102.881 26.136 102.881 27C102.881 27.872 103.093 28.664 103.517 29.376C103.941 30.08 104.501 30.64 105.197 31.056C105.901 31.472 106.665 31.68 107.489 31.68ZM116.323 33V21H118.003V22.656C118.435 22.048 118.987 21.564 119.659 21.204C120.331 20.844 121.067 20.664 121.867 20.664C122.771 20.664 123.599 20.888 124.351 21.336C125.103 21.776 125.691 22.364 126.115 23.1C126.539 22.364 127.123 21.776 127.867 21.336C128.611 20.888 129.435 20.664 130.339 20.664C131.243 20.664 132.067 20.884 132.811 21.324C133.555 21.764 134.147 22.356 134.587 23.1C135.027 23.844 135.247 24.668 135.247 25.572V33H133.567V25.944C133.567 25.304 133.411 24.712 133.099 24.168C132.787 23.624 132.367 23.188 131.839 22.86C131.319 22.524 130.739 22.356 130.099 22.356C129.459 22.356 128.875 22.512 128.347 22.824C127.827 23.128 127.411 23.552 127.099 24.096C126.787 24.632 126.631 25.248 126.631 25.944V33H124.951V25.944C124.951 25.248 124.795 24.632 124.483 24.096C124.171 23.552 123.751 23.128 123.223 22.824C122.695 22.512 122.111 22.356 121.471 22.356C120.839 22.356 120.259 22.524 119.731 22.86C119.203 23.188 118.783 23.624 118.471 24.168C118.159 24.712 118.003 25.304 118.003 25.944V33H116.323ZM147.281 21H148.961V33H147.281L147.221 30.768C146.829 31.528 146.281 32.144 145.577 32.616C144.873 33.08 144.033 33.312 143.057 33.312C142.177 33.312 141.353 33.148 140.585 32.82C139.817 32.484 139.141 32.024 138.557 31.44C137.973 30.856 137.517 30.18 137.189 29.412C136.861 28.644 136.697 27.82 136.697 26.94C136.697 26.076 136.857 25.264 137.177 24.504C137.505 23.744 137.953 23.076 138.521 22.5C139.097 21.924 139.761 21.476 140.513 21.156C141.273 20.828 142.085 20.664 142.949 20.664C143.949 20.664 144.821 20.904 145.565 21.384C146.309 21.856 146.901 22.476 147.341 23.244L147.281 21ZM143.021 31.68C143.877 31.68 144.613 31.472 145.229 31.056C145.845 30.632 146.317 30.064 146.645 29.352C146.981 28.64 147.149 27.856 147.149 27C147.149 26.12 146.981 25.328 146.645 24.624C146.309 23.912 145.833 23.348 145.217 22.932C144.601 22.516 143.869 22.308 143.021 22.308C142.173 22.308 141.397 22.52 140.693 22.944C139.997 23.36 139.441 23.924 139.025 24.636C138.617 25.348 138.413 26.136 138.413 27C138.413 27.872 138.625 28.664 139.049 29.376C139.473 30.08 140.033 30.64 140.729 31.056C141.433 31.472 142.197 31.68 143.021 31.68ZM157.494 22.68H154.626L154.614 33H152.934L152.946 22.68H150.774V21H152.946L152.934 17.232H154.614L154.626 21H157.494V22.68ZM164.587 33.312C163.483 33.312 162.475 33.028 161.563 32.46C160.659 31.892 159.935 31.132 159.391 30.18C158.855 29.22 158.587 28.16 158.587 27C158.587 26.12 158.743 25.3 159.055 24.54C159.367 23.772 159.795 23.1 160.339 22.524C160.891 21.94 161.531 21.484 162.259 21.156C162.987 20.828 163.763 20.664 164.587 20.664C165.475 20.664 166.291 20.84 167.035 21.192C167.787 21.544 168.431 22.036 168.967 22.668C169.511 23.3 169.919 24.04 170.191 24.888C170.471 25.736 170.587 26.652 170.539 27.636H160.363C160.459 28.396 160.699 29.076 161.083 29.676C161.475 30.276 161.971 30.752 162.571 31.104C163.179 31.448 163.851 31.624 164.587 31.632C165.387 31.632 166.107 31.424 166.747 31.008C167.395 30.592 167.915 30.02 168.307 29.292L170.011 29.688C169.531 30.752 168.807 31.624 167.839 32.304C166.871 32.976 165.787 33.312 164.587 33.312ZM160.315 26.28H168.847C168.791 25.536 168.563 24.856 168.163 24.24C167.771 23.616 167.263 23.12 166.639 22.752C166.015 22.376 165.331 22.188 164.587 22.188C163.843 22.188 163.163 22.372 162.547 22.74C161.931 23.1 161.427 23.592 161.035 24.216C160.643 24.832 160.403 25.52 160.315 26.28Z" fill="white"/>
</svg>
